Coordinates
version=1
nRows=15
nColumns=27
inDegrees=yes

Units are S.I. units (second, meters, Newtons, ...)
If the header above contains a line with 'inDegrees', this indicates whether rotational values are in degrees (yes) or radians (no).

endheader
time	pelvis_rotation	pelvis_tilt	pelvis_list	pelvis_tx	pelvis_ty	pelvis_tz	hip_flexion_r	hip_adduction_r	hip_rotation_r	knee_angle_r	knee_rotation_r	knee_adduction_r	knee_angle_r_beta	ankle_angle_r	subtalar_angle_r	mtp_angle_r	hip_flexion_l	hip_adduction_l	hip_rotation_l	knee_angle_l	knee_rotation_l	knee_adduction_l	knee_angle_l_beta	ankle_angle_l	subtalar_angle_l	mtp_angle_l
      3.25500000	     -1.64136297	    -24.91185840	      3.30519440	      0.08350489	      0.81409225	     -1.17054026	     51.56194120	    -29.55003807	    -14.50565932	     37.59331726	      0.00000000	      1.96478103	      0.65612716	      2.25706114	      0.00000000	      0.00000000	     47.53867132	    -19.89086707	     -3.58090770	     31.54006782	      0.00000000	      4.95406715	      0.55047803	      1.60213167	      0.00000000	      0.00000000
      3.26000000	     -1.90738022	    -25.12299423	      3.71768594	      0.08233685	      0.81319961	     -1.17077032	     52.58741012	    -29.74900149	    -13.53880470	     38.14147805	      0.00000000	      2.04934257	      0.66569437	      2.32727921	      0.00000000	      0.00000000	     47.75607259	    -19.78551537	     -4.28119349	     31.81220365	      0.00000000	      4.67629574	      0.55522770	      1.59955928	      0.00000000	      0.00000000
      3.26500000	     -1.36822866	    -25.14272208	      3.57861507	      0.08200904	      0.81270274	     -1.17075613	     52.35393253	    -30.04907643	    -14.48802006	     38.28736236	      0.00000000	      2.46123672	      0.66824054	      2.37247189	      0.00000000	      0.00000000	     48.32791306	    -19.70402462	     -3.61931802	     32.16081758	      0.00000000	      4.49477423	      0.56131216	      1.60927353	      0.00000000	      0.00000000
      3.27000000	     -0.92466274	    -26.18051189	      3.91179349	      0.07932101	      0.81134476	     -1.17116884	     54.05924641	    -30.50907581	    -14.05948496	     39.00611240	      0.00000000	      2.40479617	      0.68078509	      2.38429363	      0.00000000	      0.00000000	     50.05943142	    -19.27189575	     -2.87795662	     32.80410433	      0.00000000	      4.74115959	      0.57253963	      1.57580812	      0.00000000	      0.00000000
      3.27500000	     -0.86340431	    -25.35550440	      3.46399039	      0.08068059	      0.81133098	     -1.17066896	     52.67617213	    -30.40991093	    -15.21742783	     38.81886819	      0.00000000	      2.98853053	      0.67751706	      2.47529925	      0.00000000	      0.00000000	     49.37997076	    -19.70363356	     -3.08815664	     32.88505555	      0.00000000	      4.03014553	      0.57395249	      1.70308083	      0.00000000	      0.00000000
      3.28000000	     -0.51580493	    -25.28409207	      3.56440678	      0.08038030	      0.81061405	     -1.17075067	     52.66104951	    -30.81249727	    -15.69273213	     39.13190845	      0.00000000	      3.39345101	      0.68298065	      2.60311918	      0.00000000	      0.00000000	     49.64797739	    -19.54146482	     -2.93483196	     33.16198401	      0.00000000	      3.74740809	      0.57878581	      1.75361083	      0.00000000	      0.00000000
      3.28500000	     -0.61114301	    -25.36697861	      3.81086401	      0.07953763	      0.80968064	     -1.17083110	     53.29160305	    -31.02605216	    -15.22829013	     39.58829850	      0.00000000	      3.56443523	      0.69094615	      2.69212196	      0.00000000	      0.00000000	     49.87302126	    -19.51686386	     -3.41633805	     33.47312108	      0.00000000	      3.38885639	      0.58421617	      1.82118904	      0.00000000	      0.00000000
      3.29000000	     -0.46655707	    -25.41422135	      3.96087929	      0.07887821	      0.80879003	     -1.17089205	     53.63699774	    -31.32551120	    -15.25078909	     39.98138883	      0.00000000	      3.83190512	      0.69780687	      2.79740766	      0.00000000	      0.00000000	     50.19797095	    -19.43496941	     -3.51455489	     33.79321582	      0.00000000	      3.08330081	      0.58980288	      1.87582852	      0.00000000	      0.00000000
      3.29500000	     -0.49490821	    -25.49286399	      4.09124195	      0.07805895	      0.80784087	     -1.17088946	     54.13962494	    -31.49052779	    -14.99656645	     40.40198371	      0.00000000	      4.03391652	      0.70514764	      2.89706651	      0.00000000	      0.00000000	     50.49816492	    -19.45676689	     -3.77929105	     34.13080441	      0.00000000	      2.75932986	      0.59569491	      1.95885950	      0.00000000	      0.00000000
      3.30000000	     -0.70900784	    -25.50069852	      4.33616560	      0.07731304	      0.80687327	     -1.17096884	     54.75396584	    -31.62629314	    -14.37798139	     40.84174446	      0.00000000	      4.17176336	      0.71282291	      2.97864723	      0.00000000	      0.00000000	     50.57088937	    -19.51420410	     -4.45971098	     34.42595253	      0.00000000	      2.33351926	      0.60084622	      2.06191635	      0.00000000	      0.00000000
      3.30500000	     -0.66121618	    -25.47370208	      4.41962217	      0.07675736	      0.80599851	     -1.17100541	     55.00855478	    -31.82053494	    -14.35810456	     41.18412212	      0.00000000	      4.42668378	      0.71879853	      3.06835385	      0.00000000	      0.00000000	     50.78557421	    -19.53819081	     -4.66196463	     34.74668252	      0.00000000	      1.97980310	      0.60644401	      2.16403030	      0.00000000	      0.00000000
      3.31000000	     -0.68829692	    -25.47162903	      4.59764888	      0.07611058	      0.80503491	     -1.17111370	     55.43918235	    -32.03308762	    -14.09159919	     41.58958329	      0.00000000	      4.65476251	      0.72587516	      3.16432055	      0.00000000	      0.00000000	     50.95662067	    -19.53620802	     -5.01013286	     35.05416042	      0.00000000	      1.62988733	      0.61181052	      2.24677561	      0.00000000	      0.00000000
      3.31500000	     -0.72218740	    -25.55798348	      4.85105980	      0.07522065	      0.80397110	     -1.17130469	     56.07649719	    -32.28518036	    -13.69424888	     42.05971263	      0.00000000	      4.86327177	      0.73408047	      3.25916935	      0.00000000	      0.00000000	     51.20643917	    -19.47215550	     -5.35598566	     35.36853344	      0.00000000	      1.34054121	      0.61729736	      2.37074978	      0.00000000	      0.00000000
      3.32000000	      0.14131168	    -25.32822675	      4.08227475	      0.07560762	      0.80371960	     -1.17099069	     54.69997252	    -32.40667710	    -15.88864540	     41.83495814	      0.00000000	      5.34204394	      0.73015776	      3.26153329	      0.00000000	      0.00000000	     51.88927592	    -19.63793896	     -3.90385567	     35.80469074	      0.00000000	      1.08494170	      0.62490974	      2.42520596	      0.00000000	      0.00000000
      3.32500000	     -0.25167283	    -26.14770840	      4.51885011	      0.07294408	      0.80208195	     -1.17127317	     56.81840115	    -32.33785512	    -13.95162966	     42.59643640	      0.00000000	      4.82037310	      0.74344806	      3.24258872	      0.00000000	      0.00000000	     52.90043258	    -19.63543570	     -4.46462842	     36.35210253	      0.00000000	      0.97887272	      0.63446388	      2.49035071	      0.00000000	      0.00000000
